# xmcd
#
# Track frame offsets:
#	150
#	16318
#	36026
#	49086
#	68161
#	86445
#	103161
#	116153
#	135078
#	153324
#	169371
#
# Disc length: 2520 seconds
# Revision: 3
# Processed by: cddbd v1.5.2PL0 Copyright (c) Steve Scherf et al.
# Submitted via: dBpowerAMP V12.0
#
DISCID=8809d60b
DTITLE=Evinrudes - Somebody Has to Be Pat Boone [dBP-LITE-1-FLAC@]
DYEAR=2002
DGENRE=Pop
TTITLE0=Drive Me Home
TTITLE1=Have Some Rain
TTITLE2=Along the Way
TTITLE3=Jimmy's on Crack
TTITLE4=Otis
TTITLE5=Dick and Jane
TTITLE6=Somebody Has to Be Pat Boone
TTITLE7=High Street and the Universe
TTITLE8=Swagger
TTITLE9=Somewhere in California
TTITLE10=Weight Upon Your Soul
EXTD=
EXTT0=
EXTT1=
EXTT2=
EXTT3=
EXTT4=
EXTT5=
EXTT6=
EXTT7=
EXTT8=
EXTT9=
EXTT10=
PLAYORDER=
